<?xml version="1.0" encoding="UTF-8"?>
<svg width="128px" height="128px" viewBox="0 0 128 128" version="1.1" xmlns="http://www.w3.org/2000/svg" xmlns:xlink="http://www.w3.org/1999/xlink">
    <!-- Generator: Sketch 59.1 (86144) - https://sketch.com -->
    <title>fediverse</title>
    <desc>Created with Sketch.</desc>
    <g id="Promo" stroke="none" stroke-width="1" fill="none" fill-rule="evenodd">
        <g id="Landing" transform="translate(-636.000000, -1091.000000)" fill-rule="nonzero">
            <g id="fediverse" transform="translate(636.000000, 1091.000000)">
                <circle id="Oval-Copy" fill="#C728B6" cx="64" cy="64" r="64"></circle>
                <path d="M71.1382398,97.4293019 C71.3824039,92.9467556 75.2154825,89.5107965 79.6994744,89.7550393 C84.1834662,89.9992821 87.6203904,93.8309508 87.3762263,98.3134971 C87.1320622,102.796043 83.2989835,106.232003 78.8149917,105.98776 C74.3309998,105.743517 70.8940757,101.911848 71.1382398,97.4293019 Z M45.6123598,89.7419657 L71.2700385,93.8578363 C70.7160893,94.9561803 70.3947961,96.1569718 70.3262531,97.3851106 C70.2967102,97.9871633 70.3281438,98.5906595 70.4200743,99.1863894 L70.4200743,99.1863894 L44.7623943,95.0705188 C45.3162891,93.9720788 45.6374968,92.7711991 45.7059265,91.5429927 C45.7355366,90.9410323 45.7041883,90.3376213 45.6123598,89.7419657 L45.6123598,89.7419657 Z M28.6561208,90.6145677 C28.9002849,86.1320214 32.7333636,82.6960623 37.2173554,82.9403051 C41.7013473,83.1845479 45.1382715,87.0162166 44.8941074,91.4987629 C44.6499433,95.9813092 40.8168646,99.4172683 36.3328728,99.1730255 C31.8488809,98.9287827 28.4119568,95.0971139 28.6561208,90.6145677 Z M65.7554102,80.4985577 L75.1595412,89.9358833 C73.5224044,90.7806223 72.1861566,92.1101504 71.3334307,93.742753 L71.3334307,93.742753 L60.6923883,83.0635938 L65.7554102,80.4985577 Z M92.5828053,65.9463681 C93.8916284,67.2425265 95.5689089,68.1030264 97.3854112,68.4102624 L97.3854112,68.4102624 L85.5429563,91.5224594 C84.2340318,90.2263475 82.5566596,89.3659343 80.7400972,89.0588181 L80.7400972,89.0588181 Z M70.4852412,58.7633034 L76.089126,59.6619143 L80.679495,89.0461433 C80.3696229,88.9955286 80.0572997,88.9612606 79.7438226,88.9434817 C78.2233606,88.8643394 76.7078565,89.1745138 75.3408428,89.8446286 L75.3408428,89.8446286 L70.4852412,58.7633034 Z M71.2619243,70.5593272 L72.1385148,76.1649409 L45.591059,89.6149694 C45.2930446,87.7974609 44.4408534,86.1162947 43.1509603,84.8012479 L43.1509603,84.8012479 L71.2619243,70.5593272 Z M45.1293091,68.8353602 L49.1339325,72.8541461 L43.0604368,84.707204 C41.7517172,83.4114619 40.0747328,82.5512432 38.2585916,82.2440703 L38.2585916,82.2440703 L45.1293091,68.8353602 Z M34.1129846,56.5653161 L38.1244538,82.2189749 C37.8384509,82.174958 37.5504796,82.1448422 37.2615562,82.1287339 C35.7164466,82.048442 34.1769257,82.3702031 32.7934095,83.0625801 L32.7934095,83.0625801 L28.7814326,57.4089213 C29.0676032,57.4529545 29.3557438,57.4830703 29.6448366,57.4991624 C31.1899466,57.5794544 32.729468,57.2576933 34.1129846,56.5653161 L34.1129846,56.5653161 Z M38.0549753,52.7001442 L60.2932711,75.0171511 L55.2302493,77.5821885 L34.2296269,56.5065064 C35.8664056,55.6617747 37.202366,54.332445 38.0549753,52.7001442 L38.0549753,52.7001442 Z M90.0529426,61.0393632 C90.3509153,62.8566314 91.2029194,64.5376 92.4925349,65.8525773 L92.4925349,65.8525773 L79.040422,72.6680858 L78.1638315,67.0627251 Z M90.7497543,59.1556626 C90.9939184,54.6731163 94.8269971,51.2371571 99.3109889,51.4814 C103.794981,51.7256428 107.231905,55.5573115 106.987741,60.0398578 C106.743577,64.522404 102.910498,67.9583632 98.4265063,67.7141204 C93.9425144,67.4698775 90.5055903,63.6382088 90.7497543,59.1556626 Z M62.2216662,35.4777209 C63.5304879,36.773648 65.207666,37.6339642 67.0240176,37.9411091 L67.0240176,37.9411091 L52.6620978,65.9691817 L48.6572213,61.9501428 Z M61.5195327,50.8491809 L90.8920051,55.565056 C90.3319217,56.6684193 90.007009,57.8759802 89.9378232,59.1113412 C89.9085028,59.7063634 89.9387432,60.3028254 90.0280936,60.8918349 L90.0280936,60.8918349 L58.9326172,55.8994053 L61.5195327,50.8491809 Z M22.0122443,48.1291866 C22.2564084,43.6466403 26.089487,40.2106812 30.5734789,40.454924 C35.0574707,40.6991668 38.4943949,44.5308355 38.2502308,49.0133818 C38.0060667,53.4959281 34.172988,56.9318872 29.6889962,56.6876444 C25.2050043,56.4434016 21.7680802,52.6117328 22.0122443,48.1291866 Z M76.4309386,33.2574273 L94.7708568,51.662367 C93.1338142,52.5071485 91.7976595,53.8366728 90.9450007,55.469238 L90.9450007,55.469238 L72.6048281,37.064297 C74.2419649,36.219558 75.5782127,34.8900299 76.4309386,33.2574273 L76.4309386,33.2574273 Z M38.9637682,47.2281173 L53.8797375,49.62281 L51.2930765,54.6725269 L38.132568,52.5594581 C38.6782443,51.4677994 38.9945998,50.2760275 39.0621529,49.0575335 C39.0921042,48.4459691 39.0591363,47.8329465 38.9637682,47.2281173 L38.9637682,47.2281173 Z M72.5624823,37.0855896 L74.8953213,52.0195313 L69.2916897,51.1206661 L67.2380306,37.9745691 C67.4976217,38.0134145 67.7587977,38.0408176 68.0207999,38.0566986 C69.5938216,38.1384291 71.1605374,37.8034317 72.5624823,37.0855896 L72.5624823,37.0855896 Z M59.6915502,30.5709705 C59.9896219,32.388058 60.8416188,34.0688359 62.1311413,35.3836771 L62.1311413,35.3836771 L38.9472866,47.1295102 C38.6492431,45.3122126 37.7971489,43.631241 36.5074411,42.3162974 L36.5074411,42.3162974 Z M60.3882193,28.6865178 C60.6323834,24.2039715 64.465462,20.7680123 68.9494539,21.0122552 C73.4334457,21.256498 76.8703699,25.0881667 76.6262058,29.570713 C76.3820417,34.0532593 72.5489631,37.4892184 68.0649712,37.2449756 C63.5809793,37.0007327 60.1440552,33.169064 60.3882193,28.6865178 Z" id="Combined-Shape" fill="#FFFFFF"></path>
            </g>
        </g>
    </g>
</svg>