<?xml version="1.0" encoding="UTF-8"?>
<svg width="128px" height="128px" viewBox="0 0 128 128" version="1.1" xmlns="http://www.w3.org/2000/svg" xmlns:xlink="http://www.w3.org/1999/xlink">
    <!-- Generator: Sketch 59.1 (86144) - https://sketch.com -->
    <title>Group 7</title>
    <desc>Created with Sketch.</desc>
    <g id="Promo" stroke="none" stroke-width="1" fill="none" fill-rule="evenodd">
        <g id="Landing" transform="translate(-636.000000, -1561.000000)" fill-rule="nonzero">
            <g id="Group-7" transform="translate(636.000000, 1561.000000)">
                <circle id="Oval-Copy-2" fill="#C728B6" cx="64" cy="64" r="64"></circle>
                <path d="M68.603997,77.3065059 C74.3843739,75.0730069 77.7592811,69.0072246 76.6308285,62.8797353 C75.5023759,56.7522459 70.1917032,52.3068365 64,52.3068365 C57.8082968,52.3068365 52.4976241,56.7522459 51.3691715,62.8797353 C50.2407189,69.0072246 53.6156261,75.0730069 59.396003,77.3065059 L50.7429534,100 C34.0945475,93.5685392 24.3735649,76.0990331 27.6229735,58.4512548 C30.8723821,40.8034764 46.1673972,28 64,28 C81.8326028,28 97.1276179,40.8034764 100.377027,58.4512548 C103.626435,76.0990331 93.9054525,93.5685392 77.2570466,100 L68.603997,77.3065059 Z" id="path3773" fill="#FFFFFF"></path>
            </g>
        </g>
    </g>
</svg>