<?xml version="1.0" encoding="UTF-8"?>
<svg width="128px" height="128px" viewBox="0 0 128 128" version="1.1" xmlns="http://www.w3.org/2000/svg" xmlns:xlink="http://www.w3.org/1999/xlink">
    <!-- Generator: Sketch 59.1 (86144) - https://sketch.com -->
    <title>Group 6</title>
    <desc>Created with Sketch.</desc>
    <g id="Promo" stroke="none" stroke-width="1" fill="none" fill-rule="evenodd">
        <g id="Landing" transform="translate(-636.000000, -703.000000)" fill-rule="nonzero">
            <g id="Group-6" transform="translate(636.000000, 703.000000)">
                <circle id="Oval" fill="#C728B6" cx="64" cy="64" r="64"></circle>
                <path d="M68.7071068,33.7071068 C68.8946432,33.8946432 69,34.1489971 69,34.4142136 L69,93.5857864 C69,94.1380712 68.5522847,94.5857864 68,94.5857864 C67.7347835,94.5857864 67.4804296,94.4804296 67.2928932,94.2928932 L49,76 L37,76 L37,52 L49,52 L67.2928932,33.7071068 C67.6834175,33.3165825 68.3165825,33.3165825 68.7071068,33.7071068 Z M73,48 L73,44 C84.045695,44 93,52.954305 93,64 C93,74.9306357 84.2312714,83.813225 73.3444894,83.9970929 L73,84 L73,80 C81.836556,80 89,72.836556 89,64 C89,55.2686411 82.006099,48.1707953 73.3148707,48.0030364 L73,48 L73,44 Z M73,60 L73,56 C77.418278,56 81,59.581722 81,64 C81,68.3349143 77.5521622,71.8645429 73.2491793,71.9961932 L73,72 L73,68 C75.209139,68 77,66.209139 77,64 C77,61.8578046 75.3160315,60.1089211 73.1996403,60.0048953 L73,60 L73,56 Z" id="Combined-Shape" fill="#FFFFFF"></path>
            </g>
        </g>
    </g>
</svg>