<?xml version="1.0" encoding="UTF-8"?>
<svg width="128px" height="128px" viewBox="0 0 128 128" version="1.1" xmlns="http://www.w3.org/2000/svg" xmlns:xlink="http://www.w3.org/1999/xlink">
    <!-- Generator: Sketch 59.1 (86144) - https://sketch.com -->
    <title>UC</title>
    <desc>Created with Sketch.</desc>
    <g id="Promo" stroke="none" stroke-width="1" fill="none" fill-rule="evenodd">
        <g id="Landing" transform="translate(-624.000000, -3071.000000)" fill-rule="nonzero">
            <g id="UC" transform="translate(624.000000, 3071.000000)">
                <circle id="Oval-Copy-3" fill="#C728B6" cx="64" cy="64" r="64"></circle>
                <g id="g6" transform="translate(64.500000, 64.500000) scale(-1, 1) rotate(-180.000000) translate(-64.500000, -64.500000) translate(20.000000, 20.000000)" fill="#FFFFFF">
                    <g id="path12" transform="translate(19.500000, 24.500000)">
                        <path d="M42.3871082,0.676437562 L49.541075,0.701142 L55.220075,6.380142 L54.7827855,7.14807694 L51.1359146,13.5639263 L49.0362011,15.1818362 L46.9364875,16.799746 L44.9104481,16.799746 L42.8844087,16.8183427 L41.2267401,15.8327194 L39.5690716,14.8656929 L39.4769789,13.6197163 C39.4033047,12.6712864 39.2927935,12.2621598 38.9980968,11.9646131 L38.6113075,11.5740832 L36.069549,13.4523463 C33.0673269,15.6653494 32.8278859,15.7211394 31.943796,14.4937596 L31.3359842,13.6569096 L30.3782201,14.3449862 C29.8440825,14.7355162 28.020647,16.0558794 26.3445599,17.2832593 L23.2870822,19.5148591 L23.2686637,27.511425 L23.2681157,28.2359673 C23.2612042,32.7483853 23.189464,35.7897303 23.0844783,36.1960675 C22.8082002,37.1816907 21.8320176,38.3904739 20.7821608,39.0413572 L19.8980709,39.5992571 L14.3540904,39.6550471 C9.30741041,39.6922405 8.77327275,39.6736438 8.31280925,39.3760972 C7.72341598,38.9855672 2.34520231,32.0862045 2.06892421,31.3795313 C1.84790173,30.8030347 2.12417983,29.8546047 2.62148041,29.3896881 C3.21087369,28.8503848 4.24231192,28.7945948 4.85012374,29.2595115 C5.14482038,29.4640748 5.43951702,29.6500414 5.49477264,29.6500414 C5.5684468,29.6500414 5.99207322,29.3896881 6.43411818,29.0549482 L7.24453394,28.4784515 L6.80248898,27.9019549 C5.80788782,26.5629951 5.77207116,26.6427392 5.77105611,20.7094623 L5.77105074,13.191993 L3.19245515,8.72879345 C1.75580903,6.27403369 0.558603935,4.07962723 0.503348315,3.83787059 C0.190233136,2.62908737 1.25850845,0.93679087 2.41887647,0.788017551 C3.08194391,0.713630891 4.02128945,0.918194205 4.53700856,1.25293417 C4.75803104,1.40170749 6.34202548,3.96804724 8.03653115,6.94351362 L11.1124273,12.3737398 L11.1124273,15.2934162 C11.1124273,16.8927293 11.1676829,18.3990592 11.2413571,18.6408158 C11.3334498,19.0127491 11.6649835,18.6036225 13.4331634,15.8513161 L15.5328769,12.6340931 L15.5328769,7.65018689 C15.5328769,2.25715408 15.569714,1.99680077 16.5643152,1.21574084 C17.651009,0.341697594 19.2350034,0.564857573 20.1006748,1.71785079 L20.5979754,2.36873406 L20.653231,7.87334687 C20.6900681,10.9046032 20.6716496,13.7312963 20.5979754,14.1590196 C20.5243012,14.7355162 19.9164894,15.8327194 18.3877506,18.1944959 C17.2458011,19.9797757 16.2327814,21.5418955 16.1591073,21.6720722 C15.9933404,21.9696188 16.2143629,21.8394422 17.9825427,20.574869 C19.0323995,19.793809 19.4007703,19.4404724 19.4007703,19.1243291 C19.4007703,17.8969492 20.2848602,17.134486 21.5925766,17.2274693 C22.4398294,17.2832593 22.495085,17.246066 26.0682818,14.6239362 C28.0759026,13.1547997 29.7519898,11.8902265 29.8072454,11.7972432 C29.862501,11.7042598 29.6598971,11.2765365 29.3467819,10.8302166 C29.0336667,10.4024933 28.7942257,9.88178667 28.8310628,9.67722336 C28.8678998,9.45406338 29.5309673,8.82177678 30.4518943,8.11510351 C31.3175657,7.4828169 32.2016556,6.81333697 32.422678,6.62737032 L32.8278859,6.31122702 L32.0911443,5.34420044 L31.3544027,4.35857721 L28.6652959,4.35857721 L27.4128352,2.57329738 C26.7313492,1.60627081 26.2156301,0.769420886 26.2524672,0.713630891 C26.3077228,0.676437562 33.5646275,0.657840897 42.3871082,0.676437562 Z M8.68118005,30.2079414 C8.58908735,30.2079414 8.11020531,30.505488 7.61290474,30.8774213 L6.69197774,31.5469012 L7.18927832,32.2349778 C7.48397496,32.6069111 8.12862385,33.4809544 8.62592443,34.1504343 L9.54685143,35.3964109 L11.1676829,35.4150075 L12.806933,35.4150075 L12.4569807,34.9686876 C10.9834975,32.9788444 8.79169129,30.226538 8.68118005,30.2079414 Z M16.1222702,24.8335052 C16.1591073,24.9264886 16.932686,25.9493051 17.8351944,27.120895 L19.492863,29.2595115 L19.5481186,25.8005318 C19.5665372,23.903672 19.5665372,22.3043588 19.5112815,22.2671655 C19.4007703,22.1369888 16.0670146,24.6661352 16.1222702,24.8335052 Z" id="Combined-Shape"></path>
                    </g>
                    <path d="M72,13.5 C73.9329966,13.5 75.5,15.0670034 75.5,17 L75.5,72 C75.5,73.9329966 73.9329966,75.5 72,75.5 L17,75.5 C15.0670034,75.5 13.5,73.9329966 13.5,72 L13.5,17 C13.5,15.0670034 15.0670034,13.5 17,13.5 L72,13.5 Z M72,16.5 L17,16.5 C16.7238576,16.5 16.5,16.7238576 16.5,17 L16.5,72 C16.5,72.2761424 16.7238576,72.5 17,72.5 L72,72.5 C72.2761424,72.5 72.5,72.2761424 72.5,72 L72.5,17 C72.5,16.7238576 72.2761424,16.5 72,16.5 Z" id="Rectangle" transform="translate(44.500000, 44.500000) rotate(45.000000) translate(-44.500000, -44.500000) "></path>
                    <path d="M41.1869776,73.0609304 C39.9474688,72.6143344 38.8999966,71.6240562 38.2889711,70.3231026 C37.8176086,69.3134072 37.8350665,66.983341 38.3413447,65.9542284 C39.8427216,62.808639 43.5787059,62.2067053 45.6911083,64.7697781 C46.406881,65.6241357 46.948075,67.1192615 46.948075,68.1872086 C46.948075,69.8959238 45.8307713,71.8958973 44.4690574,72.672586 C43.7183689,73.0997648 41.8678346,73.3133542 41.1869776,73.0609304 Z" id="path10"></path>
                </g>
            </g>
        </g>
    </g>
</svg>