<?xml version="1.0" encoding="UTF-8"?>
<svg width="128px" height="120px" viewBox="0 0 128 120" version="1.1" xmlns="http://www.w3.org/2000/svg" xmlns:xlink="http://www.w3.org/1999/xlink">
    <!-- Generator: Sketch 59.1 (86144) - https://sketch.com -->
    <title>Group 2</title>
    <desc>Created with Sketch.</desc>
    <g id="Promo" stroke="none" stroke-width="1" fill="none" fill-rule="evenodd">
        <g id="Landing" transform="translate(-637.000000, -40.000000)" fill="#FFFFFF">
            <g id="Group-2" transform="translate(637.000000, 20.000000)">
                <path d="M13.9264,130.07221 L16.8496,139.392265 L21.1504,139.392265 L17.6896,129.298343 C18.6527761,128.782431 19.3471757,128.008563 19.7728,126.97674 C20.1983997,125.944917 20.4112,124.655138 20.4112,123.107403 C20.4112,120.684862 19.9352003,118.924034 18.9832,117.824917 C18.0311997,116.7258 16.4128,116.176243 14.128,116.176243 L7.8112,116.176243 L7.8112,139.392265 L11.944,139.392265 L11.944,130.07221 L13.9264,130.07221 Z M11.944,126.371105 L11.944,119.877348 L14.0944,119.877348 C14.9455998,119.877348 15.5224,120.146519 15.8248,120.684862 C16.1272,121.223204 16.2784,122.030718 16.2784,123.107403 C16.2784,124.184088 16.1216003,124.99721 15.808,125.546768 C15.4943997,126.096326 14.9231997,126.371105 14.0944,126.371105 L11.944,126.371105 Z M27.3664,119.910994 L33.616,119.910994 L33.616,116.176243 L23.2672,116.176243 L23.2672,139.392265 L33.616,139.392265 L33.616,135.69116 L27.3664,135.69116 L27.3664,129.432928 L32.7424,129.432928 L32.7424,125.731823 L27.3664,125.731823 L27.3664,119.910994 Z M39.9664,119.910994 L46.216,119.910994 L46.216,116.176243 L35.8672,116.176243 L35.8672,139.392265 L46.216,139.392265 L46.216,135.69116 L39.9664,135.69116 L39.9664,129.432928 L45.3424,129.432928 L45.3424,125.731823 L39.9664,125.731823 L39.9664,119.910994 Z M48.4672,116.176243 L48.4672,139.392265 L58.816,139.392265 L58.816,135.69116 L52.6,135.69116 L52.6,116.176243 L48.4672,116.176243 Z M60.5296,135.792099 L60.5296,139.392265 L71.584,139.392265 L71.584,135.657514 L65.1328,135.657514 L69.904,128.019779 C70.4864003,127.07768 70.912,126.230912 71.1808,125.479475 C71.4496,124.728038 71.584,123.847624 71.584,122.838232 L71.584,121.189558 C71.584,119.552099 71.0968,118.251106 70.1224,117.286575 C69.148,116.322044 67.8319998,115.839779 66.1744,115.839779 C64.5168002,115.839779 63.184,116.310829 62.176,117.252928 C61.168,118.195028 60.664,119.462376 60.664,121.054972 L60.664,123.107403 L64.6624,123.107403 L64.6624,121.559669 C64.6624,120.213812 65.1328,119.540884 66.0736,119.540884 C67.0368002,119.540884 67.5184,120.157734 67.5184,121.391436 L67.5184,122.703646 C67.5184,123.443867 67.4344,124.05511 67.2664,124.537376 C67.0984,125.019641 66.8128,125.597238 66.4096,126.270166 L60.5296,135.792099 Z M86.2336,129.197403 C85.8752003,128.322597 85.192,127.660884 84.184,127.212265 C85.1024003,126.786078 85.7519997,126.169227 86.1328,125.361713 C86.5136003,124.554199 86.704,123.578453 86.704,122.434475 C86.704,120.258673 86.2223997,118.671686 85.2592,117.673508 C84.2960003,116.675331 82.6832003,116.176243 80.4208,116.176243 L74.1376,116.176243 L74.1376,139.392265 L80.4208,139.392265 C82.7279976,139.392265 84.3631973,138.859531 85.3264,137.794061 C86.2895997,136.728592 86.7712,135.018232 86.7712,132.662983 C86.7712,131.227403 86.5919997,130.07221 86.2336,129.197403 Z M78.2368,119.877348 L79.984,119.877348 C80.9472002,119.877348 81.6191997,120.090441 82,120.51663 C82.3808003,120.942749 82.5712,121.671755 82.5712,122.703646 C82.5712,123.690608 82.3808003,124.40279 82,124.840193 C81.6192079,125.277597 80.9472079,125.496298 79.984,125.496298 L78.2368,125.496298 L78.2368,119.877348 Z M82.0672,134.934116 C81.6864079,135.438812 80.9808079,135.69116 79.9504,135.69116 L78.2368,135.69116 L78.2368,129.062818 L79.9504,129.062818 C80.9136002,129.062818 81.6023997,129.320773 82.0168,129.836685 C82.4312003,130.352589 82.6384,131.193749 82.6384,132.360166 C82.6384,133.571436 82.4480003,134.42942 82.0672,134.934116 Z M89.5936,116.176243 L89.5936,139.392265 L93.6928,139.392265 L93.6928,116.176243 L89.5936,116.176243 Z M107.5024,119.910994 L107.5024,116.176243 L95.3728,116.176243 L95.3728,119.910994 L99.4048,119.910994 L99.4048,139.392265 L103.504,139.392265 L103.504,119.910994 L107.5024,119.910994 Z M109.9216,137.878177 C108.8464,136.689337 108.2976,134.984586 108.2752,132.763923 L112.1728,132.763923 C112.2176,133.907901 112.4472,134.749061 112.8616,135.287403 C113.276,135.825746 113.8864,136.094917 114.6928,136.094917 C115.4992,136.094917 116.0872,135.848176 116.4568,135.354696 C116.8264,134.861215 117.0112,134.076133 117.0112,132.999448 C117.0112,132.102203 116.804,131.39002 116.3896,130.862901 C115.975196,130.335774 115.2752,129.847901 114.2896,129.399282 L112.7104,128.692707 C111.2096,128.019779 110.1288,127.189835 109.468,126.202873 C108.8072,125.215898 108.4768,123.892472 108.4768,122.232597 C108.4768,120.281105 109.0424,118.722155 110.1736,117.555746 C111.3048,116.389336 112.8336,115.806133 114.76,115.806133 C116.664,115.806133 118.1368,116.38373 119.1784,117.538923 C120.22,118.694115 120.7744,120.359613 120.8416,122.535414 L117.0448,122.535414 C117.0224,121.481161 116.8376,120.69047 116.4904,120.163343 C116.1432,119.636215 115.5664,119.372652 114.76,119.372652 C113.2592,119.372652 112.5088,120.258673 112.5088,122.030718 C112.5088,122.838232 112.6936,123.483121 113.0632,123.965387 C113.4328,124.447652 114.0544,124.879447 114.928,125.260773 L116.44,125.933702 C118.0528,126.651492 119.2232,127.548729 119.9512,128.625414 C120.6792,129.702099 121.0432,131.13768 121.0432,132.932155 C121.0432,135.085525 120.4832,136.745414 119.3632,137.911823 C118.2432,139.078232 116.6528,139.661436 114.592,139.661436 C112.5536,139.661436 110.9968,139.067016 109.9216,137.878177 Z" id="REEL2BITS" fill-rule="nonzero"></path>
                <g id="Logo">
                    <g id="Group" transform="translate(0.000000, 20.000000)">
                        <polygon id="tape-2" fill-rule="nonzero" points="104.024183 60 111.239426 60 80 80.8090265 80 76.0028506 104.024183 60"></polygon>
                        <path d="M17.7095489,60.6396992 C21.407101,62.4882654 25.5126417,63.6418476 29.85497,63.9292449 L48,76.0259316 L48,80.8333333 L17.7095489,60.6396992 L17.7095489,60.6396992 Z" id="tape-1" fill-rule="nonzero"></path>
                        <path d="M76.6666667,4 L123.333333,4 C125.910662,4 128,6.08933783 128,8.66666667 L128,55.3333333 C128,57.9106622 125.910662,60 123.333333,60 L76.6666667,60 C74.0893378,60 72,57.9106622 72,55.3333333 L72,8.66666667 C72,6.08933783 74.0893378,4 76.6666667,4 Z M113.5,32 L90,16 L90,48 L113.5,32 Z" id="Play" fill-rule="nonzero"></path>
                        <path d="M8.69026342,37.7380527 L17.9104134,39.5820827 C15.2764038,34.6937895 15.4450936,29.0064048 17.907777,24.4184446 L8.69026342,26.2619473 C8.23920663,28.1005251 8,30.0223277 8,32 C8,33.9776723 8.23920663,35.8994749 8.6902653,37.7380532 L8.69026342,37.7380527 Z M38.6860189,8.94363763 L32.4802919,16.0049992 C37.6849237,16.1662329 42.6946883,18.8638356 45.6110695,23.5891014 L48.6221945,14.688035 C45.8603467,12.0355575 42.4651453,10.0376155 38.6860189,8.94363763 Z M48.6221945,49.311965 L45.612302,40.4145419 C44.266383,42.5961282 42.3755777,44.4848661 40,45.8564065 C37.6244223,47.2279469 35.0433247,47.9210634 32.481056,47.9958703 L38.6860189,55.0563624 C42.4651453,53.9623845 45.8603467,51.9644425 48.6221945,49.311965 L48.6221945,49.311965 Z M24.0038446,32.0006723 C24.0038446,36.4182127 27.5849686,39.9993367 32.002509,39.9993367 C36.4200494,39.9993367 40.0011734,36.4182127 40.0011734,32.0006723 C40.0011734,27.5831319 36.4200494,24.0020079 32.002509,24.0020079 C27.5849686,24.0020079 24.0038446,27.5831319 24.0038446,32.0006723 Z M32,64 C14.326888,64 0,49.673112 0,32 C0,14.326888 14.326888,0 32,0 C49.673112,0 64,14.326888 64,32 C64,49.673112 49.673112,64 32,64 Z" id="Reel" fill-rule="nonzero"></path>
                        <path d="M52,68 L76,68 C78.209139,68 80,69.790861 80,72 L80,81.5 L76,84 L52,84 L48,81.5 L48,72 C48,69.790861 49.790861,68 52,68 Z" id="head" fill-rule="nonzero"></path>
                    </g>
                </g>
            </g>
        </g>
    </g>
</svg>